<?xml version="1.0" encoding="utf-8"?>
<!-- Generator: Adobe Illustrator 16.0.0, SVG Export Plug-In . SVG Version: 6.00 Build 0)  -->
<!DOCTYPE svg PUBLIC "-//W3C//DTD SVG 1.1//EN" "http://www.w3.org/Graphics/SVG/1.1/DTD/svg11.dtd">
<svg version="1.1" id="Layer_1" xmlns="http://www.w3.org/2000/svg" xmlns:xlink="http://www.w3.org/1999/xlink" x="0px" y="0px"
	 width="18px" height="19px" viewBox="0 0 18 19" enable-background="new 0 0 18 19" xml:space="preserve">
<g>
	<path fill="#999999" d="M15,2h-5V0H8v2H3H0.5v1H2v14c0,1.103,0.897,2,2,2h10c1.103,0,2-0.897,2-2V3h1.5V2H15z M15,17
		c0,0.552-0.448,1-1,1H4c-0.551,0-1-0.448-1-1V3h12V17z"/>
	<rect x="12" y="6.5" fill="#999999" width="1" height="8"/>
	<rect x="10" y="6.5" fill="#999999" width="1" height="8"/>
	<rect x="8" y="6.5" fill="#999999" width="1" height="8"/>
</g>
</svg>
