<?xml version="1.0" encoding="utf-8"?>
<!-- Generator: Adobe Illustrator 16.0.0, SVG Export Plug-In . SVG Version: 6.00 Build 0)  -->
<!DOCTYPE svg PUBLIC "-//W3C//DTD SVG 1.1//EN" "http://www.w3.org/Graphics/SVG/1.1/DTD/svg11.dtd">
<svg version="1.1" id="Layer_1" xmlns="http://www.w3.org/2000/svg" xmlns:xlink="http://www.w3.org/1999/xlink" x="0px" y="0px"
	 width="113px" height="111px" viewBox="0 0 113 111" enable-background="new 0 0 113 111" xml:space="preserve">
<g id="그룹_5291" transform="translate(-755 -409)">
	<g id="사각형_2731" transform="translate(755 430)">
		<path fill="#DACCBA" d="M10,0h70c5.523,0,10,4.477,10,10v70c0,5.523-4.477,10-10,10H10C4.477,90,0,85.523,0,80V10
			C0,4.477,4.477,0,10,0z"/>
		<path fill="none" stroke="#222222" stroke-width="4" d="M10,2h70c4.418,0,8,3.582,8,8v70c0,4.418-3.582,8-8,8H10
			c-4.418,0-8-3.582-8-8V10C2,5.582,5.582,2,10,2z"/>
	</g>
	<g id="사각형_2732" transform="translate(789 430)">
		<path fill="#FFFFFF" d="M0.75,2.333h21.283C22.567,2.333,23,2.745,23,3.253v22.988C23,27.765,21.701,29,20.098,29H3.652
			c-1.603,0-2.902-1.235-2.902-2.759V2.333L0.75,2.333z"/>
		<path fill="none" stroke="#222222" stroke-width="4" d="M4,2h16c0.552,0,1,0.448,1,1v23c0,0.552-0.448,1-1,1H3
			c-0.552,0-1-0.448-1-1V4C2,2.896,2.896,2,4,2z"/>
	</g>
	<rect id="사각형_2736" x="803" y="491" fill="#EDEDED" width="30" height="15"/>
	<g id="타원_58" transform="translate(818 409)">
		<circle fill="#BCD630" cx="25" cy="25" r="25"/>
		<circle fill="none" stroke="#222222" stroke-width="4" cx="25" cy="25" r="23"/>
	</g>
	<path id="패스_308" fill="none" stroke="#222222" stroke-width="4" stroke-linecap="round" d="M834,432.303l6.82,6.82
		l11.961-11.961"/>
</g>
</svg>
