<?xml version="1.0" encoding="utf-8"?>
<!-- Generator: Adobe Illustrator 16.0.0, SVG Export Plug-In . SVG Version: 6.00 Build 0)  -->
<!DOCTYPE svg PUBLIC "-//W3C//DTD SVG 1.1//EN" "http://www.w3.org/Graphics/SVG/1.1/DTD/svg11.dtd">
<svg version="1.1" id="Layer_1" xmlns="http://www.w3.org/2000/svg" xmlns:xlink="http://www.w3.org/1999/xlink" x="0px" y="0px"
	 width="24.334px" height="22.014px" viewBox="0 0 24.334 22.014" enable-background="new 0 0 24.334 22.014" xml:space="preserve">
<path fill="#669933" d="M23.917,4.097c-0.504-1.494-1.584-2.725-3-3.417C19.959,0.232,18.915,0,17.856,0l-0.004-0.003
	c-2.223-0.067-4.32,1.022-5.542,2.879L12.16,3.133L12.029,2.91c-1.22-1.859-3.319-2.952-5.542-2.883
	C5.43,0.026,4.386,0.258,3.429,0.706c-1.416,0.692-2.496,1.922-3,3.415c-0.646,1.845-0.55,3.868,0.269,5.643
	c0.99,2.092,3.922,5.247,6.755,8.033c2.152,2.117,4.261,3.971,4.441,4.127c0.075,0.06,0.168,0.09,0.263,0.086
	c0.019,0.001,0.038,0.001,0.057,0c0.095-0.013,0.183-0.056,0.25-0.124c0.278-0.242,2.887-2.539,5.768-5.452
	c2.139-2.159,4.537-4.848,5.414-6.7C24.464,7.961,24.562,5.939,23.917,4.097z"/>
</svg>
